# xmcd CD database file generated by OrangeCD 5.2
#
# Track frame offsets:
#	150
#	24553
#	61719
#	98260
#	176179
#
# Disc length: 3694 seconds
#
# Revision: 2
# Processed by: cddbd v1.5.1PL0 Copyright (c) Steve Scherf et al.
# Submitted via: OrangeCD 5.2
#
DISCID=310e6c05
DTITLE=Unexplained Transmissions - Unexplained Transmissions
DYEAR=2000
DGENRE=Country
TTITLE0=Spacewalk
TTITLE1=Airlock
TTITLE2=Operational Support
TTITLE3=+
TTITLE4=[-]
EXTD=
EXTT0=
EXTT1=
EXTT2=
EXTT3=
EXTT4=
PLAYORDER=
